<svg width="253" height="100" viewBox="0 0 253 100" fill="none" xmlns="http://www.w3.org/2000/svg">
<path d="M252.5 5L241.717 0.870151L243.532 12.2736L252.5 5ZM1.21667 52.9763C33.8402 45.7359 83.1279 38.2525 124.975 39.3122C145.908 39.8423 164.889 42.509 178.976 48.3534C193.045 54.19 202.062 63.1094 203.506 76.1104L205.494 75.8896C203.938 61.8907 194.184 52.4975 179.743 46.506C165.319 40.5223 146.05 37.8452 125.025 37.3128C82.9555 36.2475 33.4932 43.7642 0.783333 51.0238L1.21667 52.9763ZM203.506 76.1104C204.404 84.1918 202.15 89.5956 198.145 92.9668C194.089 96.3813 188.058 97.864 181.129 97.6743C167.262 97.2947 150.415 90.2292 140.526 79.9717C135.592 74.855 132.466 69.0248 132.201 62.9105C131.936 56.8253 134.498 50.2673 141.325 43.6472C155.051 30.3387 185.762 17.0393 243.752 7.40489L243.425 5.43193C185.393 15.0732 154.133 28.4426 139.933 42.2114C132.798 49.1299 129.908 56.2128 130.202 62.9973C130.496 69.753 133.939 76.0216 139.086 81.3598C149.356 92.0121 166.708 99.2803 181.074 99.6736C188.262 99.8704 194.856 98.3494 199.433 94.4969C204.061 90.6012 206.448 84.4748 205.494 75.8896L203.506 76.1104Z" fill="white"/>
</svg>
